<svg xmlns="http://www.w3.org/2000/svg" width="187.451" height="30.072" viewBox="0 0 187.451 30.072">
  <g id="Logo_Gesth" data-name="Logo Gesth" transform="translate(-906.274 -97.964)">
    <g id="Grupo_439" data-name="Grupo 439">
      <g id="Logo_Negativo" data-name="Logo Negativo" transform="translate(906.274 97.964)">
        <path id="Trazado_1" data-name="Trazado 1" d="M459.409,870.96H432.623a3.415,3.415,0,0,1-3.405-3.4h0a3.416,3.416,0,0,1,3.405-3.405h26.786a3.415,3.415,0,0,1,3.405,3.405h0A3.415,3.415,0,0,1,459.409,870.96Z" transform="translate(-390.668 -864.033)" fill="#ff2c2c"/>
        <path id="Trazado_2" data-name="Trazado 2" d="M459.409,917.25H432.623a3.416,3.416,0,0,1-3.405-3.406h0a3.415,3.415,0,0,1,3.405-3.405h26.786a3.415,3.415,0,0,1,3.405,3.405h0A3.416,3.416,0,0,1,459.409,917.25Z" transform="translate(-390.668 -887.177)" fill="#ff2c2c"/>
        <path id="Trazado_3" data-name="Trazado 3" d="M473.549,894.1H460.9A3.416,3.416,0,0,1,457.5,890.7h0a3.415,3.415,0,0,1,3.405-3.405h12.646a3.415,3.415,0,0,1,3.405,3.405h0A3.416,3.416,0,0,1,473.549,894.1Z" transform="translate(-404.807 -875.605)" fill="#ff2c2c"/>
        <path id="Trazado_4" data-name="Trazado 4" d="M434.519,894.1h-2.236a3.416,3.416,0,0,1-3.405-3.406h0a3.416,3.416,0,0,1,3.405-3.405h2.236a3.416,3.416,0,0,1,3.405,3.405h0A3.416,3.416,0,0,1,434.519,894.1Z" transform="translate(-390.498 -875.605)" fill="#ff2c2c"/>
        <path id="Trazado_5" data-name="Trazado 5" d="M366.858,864.03l17.063-.059q2.936,0,2.922,2.981t-2.922,2.979H366.858q-8.752.09-8.751,6.078v5.934q0,6.052,8.781,6.05h14.036v-6.05H369.942q-2.994,0-2.995-3.011T370,875.923h10.866q6.108.028,6.109,6.021v6.05q-.059,5.93-6.109,5.932l-14.008.058q-14.74,0-14.741-12.041v-5.934Q352.117,864.031,366.858,864.03Z" transform="translate(-352.117 -863.943)" fill="#fff"/>
        <path id="Trazado_6" data-name="Trazado 6" d="M513.874,864.178l22.907-.028a2.581,2.581,0,0,1,2.922,2.935,2.657,2.657,0,0,1-2.922,3l-22.907-.06q-3.113.147-3.083,3.1t3.083,2.95h16.914q9.046,0,9.076,8.988v.057q0,8.929-9.017,8.929H507.823q-2.992,0-2.993-2.937,0-2.967,2.993-3h22.965q2.937-.059,2.967-3.052t-3.025-3H513.874q-9.044,0-9.044-8.925Q504.83,864.176,513.874,864.178Z" transform="translate(-428.474 -864.033)" fill="#fff"/>
        <path id="Trazado_7" data-name="Trazado 7" d="M584.18,863.915h29.045q2.992,0,2.993,2.935,0,3-2.935,3.053l-11.865-.057V890.96a2.648,2.648,0,0,1-3,3q-3.055,0-3.055-3V869.845l-11.247.057q-2.936-.057-2.937-3.053Q581.184,863.914,584.18,863.915Z" transform="translate(-466.651 -863.915)" fill="#fff"/>
        <path id="Trazado_8" data-name="Trazado 8" d="M657.3,890.988V866.966a2.648,2.648,0,0,1,3-3q2.936,0,3,2.848v9.19h22.9l-.028-9.132q.029-2.908,3.024-2.906,2.969,0,2.966,2.848v24.112a2.67,2.67,0,0,1-2.981,3.024q-2.979.029-2.981-3.024V882h-22.9v9.046a3,3,0,0,1-5.992-.06Z" transform="translate(-504.71 -863.943)" fill="#fff"/>
      </g>
    </g>
  </g>
</svg>
